<svg width="1920" height="540" viewBox="0 0 1920 540" fill="none" xmlns="http://www.w3.org/2000/svg">
<g clip-path="url(#clip0)">
<rect width="1920" height="540" fill="url(#paint0_linear)"/>
<path fill-rule="evenodd" clip-rule="evenodd" d="M1347.5 284.997C1371.02 298.578 1400.2 293.48 1417.87 274.305C1420.67 271.265 1423.18 267.871 1425.33 264.141C1428.1 259.345 1430.09 254.314 1431.35 249.193C1437.23 225.215 1426.93 199.272 1404.48 186.307C1377.22 170.573 1342.38 179.911 1326.64 207.163C1310.91 234.415 1320.25 269.263 1347.5 284.997ZM1361.74 260.324C1375.37 268.192 1392.79 263.523 1400.66 249.897C1408.53 236.271 1403.86 218.847 1390.23 210.98C1376.61 203.113 1359.18 207.781 1351.32 221.408C1343.45 235.034 1348.12 252.457 1361.74 260.324Z" fill="#4B5AE2" fill-opacity="0.08"/>
<path fill-rule="evenodd" clip-rule="evenodd" d="M1512.71 341.684C1504.82 337.129 1499.93 329.369 1498.74 320.997C1497.88 314.912 1498.97 308.503 1502.28 302.768C1504.21 299.413 1506.73 296.602 1509.63 294.386C1518.49 287.602 1530.92 286.409 1541.19 292.34C1554.82 300.207 1559.49 317.631 1551.62 331.257C1543.76 344.883 1526.33 349.552 1512.71 341.684ZM1471.21 305.105C1466.19 328.619 1476.51 353.686 1498.46 366.357C1525.71 382.091 1560.56 372.754 1576.3 345.501C1589.88 321.979 1584.78 292.798 1565.6 275.133C1562.56 272.332 1559.17 269.821 1555.44 267.667C1550.65 264.9 1545.62 262.908 1540.5 261.653C1519.98 256.62 1498.01 263.432 1483.98 279.579L1431.35 249.193L1417.87 274.305L1471.21 305.105Z" fill="#4B5AE2" fill-opacity="0.08"/>
<path fill-rule="evenodd" clip-rule="evenodd" d="M1666.33 154.245C1674.47 184.641 1656.44 215.885 1626.04 224.029C1615.57 226.835 1605 226.534 1595.3 223.69L1565.6 275.133L1540.5 261.653L1570.82 209.115C1564.05 202.301 1558.92 193.681 1556.26 183.74C1548.11 153.344 1566.15 122.1 1596.55 113.956C1626.94 105.811 1658.18 123.849 1666.33 154.245ZM1610.44 197.476C1613.15 197.557 1615.91 197.248 1618.67 196.511C1633.86 192.439 1642.88 176.817 1638.81 161.619C1634.74 146.421 1619.12 137.402 1603.92 141.474C1588.72 145.546 1579.7 161.168 1583.77 176.366C1584.36 178.54 1585.18 180.588 1586.2 182.488C1591.02 191.47 1600.33 197.177 1610.44 197.476Z" fill="#4B5AE2" fill-opacity="0.08"/>
<path fill-rule="evenodd" clip-rule="evenodd" d="M1643 580.786C1656.58 557.264 1651.48 528.083 1632.31 510.418C1629.27 507.617 1625.87 505.106 1622.14 502.952C1617.35 500.183 1612.31 498.191 1607.19 496.936C1583.22 491.06 1557.27 501.352 1544.31 523.808C1528.57 551.06 1537.91 585.908 1565.16 601.642C1592.42 617.376 1627.26 608.039 1643 580.786ZM1618.32 566.542C1626.19 552.916 1621.52 535.492 1607.9 527.625C1594.27 519.758 1576.85 524.426 1568.98 538.053C1561.11 551.679 1565.78 569.102 1579.41 576.97C1593.03 584.837 1610.46 580.168 1618.32 566.542Z" fill="#4B5AE2" fill-opacity="0.08"/>
<path fill-rule="evenodd" clip-rule="evenodd" d="M1699.68 415.579C1695.13 423.47 1687.37 428.357 1679 429.545C1672.91 430.409 1666.5 429.319 1660.77 426.007C1657.41 424.07 1654.6 421.555 1652.39 418.659C1645.6 409.792 1644.41 397.362 1650.34 387.09C1658.21 373.464 1675.63 368.795 1689.26 376.662C1702.88 384.529 1707.55 401.953 1699.68 415.579ZM1663.11 457.071C1686.62 462.099 1711.69 451.771 1724.36 429.824C1740.09 402.572 1730.75 367.724 1703.5 351.99C1679.98 338.409 1650.8 343.507 1633.13 362.681C1630.33 365.722 1627.82 369.116 1625.67 372.846C1622.9 377.639 1620.91 382.667 1619.65 387.785C1614.62 408.307 1621.43 430.271 1637.58 444.306L1607.19 496.936L1632.31 510.418L1663.11 457.071Z" fill="#4B5AE2" fill-opacity="0.08"/>
<path fill-rule="evenodd" clip-rule="evenodd" d="M1512.25 261.956C1542.64 253.811 1573.88 271.849 1582.03 302.245C1584.84 312.716 1584.53 323.288 1581.69 332.981L1633.13 362.681L1619.65 387.785L1567.12 357.462C1560.3 364.231 1551.68 369.366 1541.74 372.029C1511.34 380.174 1480.1 362.136 1471.96 331.74C1463.81 301.344 1481.85 270.1 1512.25 261.956ZM1555.48 317.846C1555.56 315.137 1555.25 312.371 1554.51 309.619C1550.44 294.421 1534.82 285.402 1519.62 289.474C1504.42 293.546 1495.4 309.168 1499.47 324.366C1503.55 339.564 1519.17 348.583 1534.37 344.511C1536.54 343.928 1538.59 343.11 1540.49 342.09C1549.47 337.27 1555.18 327.956 1555.48 317.846Z" fill="#4B5AE2" fill-opacity="0.08"/>
<path fill-rule="evenodd" clip-rule="evenodd" d="M1938.79 285.003C1915.26 271.422 1886.08 276.52 1868.42 295.695C1865.62 298.735 1863.11 302.129 1860.95 305.859C1858.18 310.655 1856.19 315.686 1854.94 320.807C1849.06 344.785 1859.35 370.727 1881.81 383.693C1909.06 399.427 1943.91 390.089 1959.64 362.837C1975.38 335.585 1966.04 300.737 1938.79 285.003ZM1924.54 309.676C1910.92 301.808 1893.49 306.477 1885.62 320.103C1877.76 333.729 1882.43 351.153 1896.05 359.02C1909.68 366.887 1927.1 362.219 1934.97 348.592C1942.84 334.966 1938.17 317.543 1924.54 309.676Z" fill="#4B5AE2" fill-opacity="0.08"/>
<path fill-rule="evenodd" clip-rule="evenodd" d="M1773.58 228.316C1781.47 232.871 1786.36 240.631 1787.55 249.003C1788.41 255.088 1787.32 261.497 1784.01 267.232C1782.07 270.587 1779.55 273.398 1776.66 275.614C1767.79 282.398 1755.36 283.591 1745.09 277.66C1731.46 269.793 1726.8 252.369 1734.66 238.743C1742.53 225.117 1759.95 220.448 1773.58 228.316ZM1815.07 264.895C1820.1 241.381 1809.77 216.314 1787.82 203.643C1760.57 187.909 1725.72 197.246 1709.99 224.499C1696.41 248.021 1701.51 277.202 1720.68 294.867C1723.72 297.668 1727.12 300.179 1730.85 302.333C1735.64 305.1 1740.67 307.092 1745.79 308.347C1766.31 313.38 1788.27 306.568 1802.31 290.421L1854.94 320.807L1868.42 295.695L1815.07 264.895Z" fill="#4B5AE2" fill-opacity="0.08"/>
<path fill-rule="evenodd" clip-rule="evenodd" d="M1619.96 415.755C1611.81 385.359 1629.85 354.115 1660.25 345.971C1670.72 343.165 1681.29 343.466 1690.98 346.31L1720.68 294.867L1745.79 308.347L1715.46 360.885C1722.23 367.699 1727.37 376.319 1730.03 386.26C1738.17 416.656 1720.14 447.9 1689.74 456.044C1659.34 464.189 1628.1 446.151 1619.96 415.755ZM1675.85 372.524C1673.14 372.443 1670.37 372.752 1667.62 373.489C1652.42 377.561 1643.4 393.183 1647.47 408.381C1651.55 423.579 1667.17 432.598 1682.37 428.526C1697.56 424.454 1706.58 408.832 1702.51 393.634C1701.93 391.46 1701.11 389.412 1700.09 387.512C1695.27 378.53 1685.96 372.823 1675.85 372.524Z" fill="#4B5AE2" fill-opacity="0.08"/>
</g>
<defs>
<linearGradient id="paint0_linear" x1="0" y1="0" x2="1920" y2="540" gradientUnits="userSpaceOnUse">
<stop stop-color="#4B5AE2" stop-opacity="0.03"/>
<stop offset="1" stop-color="#4B5AE2" stop-opacity="0.03"/>
</linearGradient>
<clipPath id="clip0">
<rect width="1920" height="540" fill="white"/>
</clipPath>
</defs>
</svg>
