<?xml version="1.0" standalone="no"?>
<!DOCTYPE svg PUBLIC "-//W3C//DTD SVG 20010904//EN"
 "http://www.w3.org/TR/2001/REC-SVG-20010904/DTD/svg10.dtd">
<svg version="1.0" xmlns="http://www.w3.org/2000/svg"
 width="4000.000000pt" height="4000.000000pt" viewBox="0 0 4000.000000 4000.000000"
 preserveAspectRatio="xMidYMid meet">
<metadata>
Created by potrace 1.14, written by Peter Selinger 2001-2017
</metadata>
<g transform="translate(0.000000,4000.000000) scale(0.100000,-0.100000)"
fill="#000000" stroke="none">
<path d="M9505 39993 c-2124 -107 -4146 -880 -5798 -2216 -487 -394 -1045
-948 -1438 -1427 -1368 -1670 -2147 -3681 -2259 -5835 -8 -150 -10 -3182 -8
-10655 3 -9877 4 -10455 21 -10635 10 -104 29 -284 42 -400 239 -2021 1068
-3880 2423 -5433 289 -331 811 -836 1162 -1123 1670 -1368 3682 -2147 5835
-2259 150 -8 3182 -10 10655 -8 9877 3 10455 4 10635 21 105 10 285 29 400 42
2021 239 3880 1068 5433 2423 331 289 836 811 1123 1162 1368 1670 2147 3682
2259 5835 8 150 10 3182 8 10655 -3 9877 -4 10455 -21 10635 -10 105 -29 285
-42 400 -239 2021 -1068 3880 -2423 5433 -183 210 -687 715 -892 893 -455 398
-930 749 -1400 1036 -1429 871 -2995 1357 -4684 1453 -119 7 -3622 9 -10575 8
-5718 -1 -10423 -3 -10456 -5z m20950 -8883 c866 -43 1664 -308 2385 -794 760
-512 1364 -1262 1700 -2111 236 -597 343 -1194 327 -1830 -13 -505 -88 -929
-248 -1392 -477 -1380 -1583 -2463 -2964 -2902 -838 -267 -1777 -291 -2594
-68 l-123 34 -29 -46 c-16 -25 -690 -1191 -1498 -2591 l-1469 -2545 130 -133
c984 -1019 1448 -2416 1268 -3817 -144 -1125 -716 -2181 -1585 -2924 -1286
-1102 -3101 -1411 -4675 -796 -818 320 -1524 856 -2040 1550 -840 1128 -1124
2587 -766 3940 19 72 32 133 28 137 -4 3 -1170 677 -2590 1497 l-2584 1492
-134 -130 c-752 -727 -1691 -1165 -2744 -1281 -52 -6 -183 -15 -290 -19 -1799
-79 -3498 916 -4313 2526 -527 1041 -644 2248 -326 3360 360 1255 1222 2294
2387 2877 501 251 1045 406 1642 468 206 21 726 16 940 -10 756 -92 1433 -340
2055 -755 510 -340 965 -798 1298 -1307 352 -539 579 -1118 691 -1770 110
-633 78 -1345 -87 -1948 -27 -100 -31 -124 -21 -133 8 -6 1173 -681 2591
-1499 l2577 -1488 134 129 c716 692 1611 1127 2597 1263 224 31 357 40 625 40
434 0 777 -43 1175 -148 72 -19 133 -32 137 -28 3 4 677 1170 1498 2590 l1491
2584 -113 116 c-728 752 -1163 1664 -1294 2717 -22 175 -30 700 -15 888 67
794 321 1528 759 2191 170 259 323 446 557 685 384 392 768 670 1260 911 310
152 604 260 928 340 346 85 643 123 1082 138 22 1 130 -3 240 -8z"/>
<path d="M29990 28244 c-774 -122 -1355 -687 -1496 -1455 -22 -123 -29 -356
-14 -490 32 -291 131 -559 301 -815 90 -135 299 -347 439 -447 392 -276 912
-385 1375 -288 311 66 620 223 849 433 395 361 614 916 568 1439 -73 821 -656
1465 -1459 1615 -126 23 -440 28 -563 8z"/>
<path d="M9595 22768 c-702 -70 -1297 -554 -1513 -1230 -71 -219 -99 -508 -72
-736 68 -589 425 -1105 949 -1376 416 -215 916 -255 1360 -110 144 47 313 130
451 221 160 106 365 312 473 473 174 263 269 537 298 865 41 460 -135 967
-460 1326 -371 408 -933 623 -1486 567z"/>
<path d="M22489 15265 c-671 -109 -1210 -562 -1423 -1196 -66 -199 -81 -304
-81 -564 1 -201 4 -243 23 -334 113 -518 399 -923 838 -1187 407 -245 932
-312 1389 -180 769 223 1287 909 1286 1703 -1 332 -80 627 -245 907 -253 430
-686 737 -1181 837 -141 28 -472 36 -606 14z"/>
</g>
</svg>
