<svg width="268" height="200" fill="none" xmlns="http://www.w3.org/2000/svg"><path d="M117.369 146.022l9.811-16.994 1.133.654-9.812 16.994-1.132-.654z" fill="#4B5AE2"/><path d="M72.808 120.294l9.811-16.995 44.561 25.729-9.811 16.994-44.561-25.728zM71.675 119.639l9.811-16.994 1.133.654-9.811 16.995-1.133-.655zM187.002 128.32l-16.994-9.811.655-1.133 16.993 9.811-.654 1.133zM213.383 82.624l-16.993-9.811.654-1.133 16.993 9.811-.654 1.133z" fill="#4B5AE2"/><path d="M187.656 127.187l-16.993-9.811 25.727-44.564 16.993 9.812-25.727 44.563z" fill="#4B5AE2"/><path fill-rule="evenodd" clip-rule="evenodd" d="M77.714 111.796c11.499-19.918 4.675-45.388-15.243-56.888-19.917-11.5-45.386-4.676-56.885 15.243C-5.914 90.07.911 115.54 20.828 127.04c19.918 11.5 45.386 4.675 56.886-15.244zm-22.28-12.864c4.394-7.613 1.786-17.347-5.826-21.743-7.613-4.395-17.347-1.787-21.742 5.826-4.395 7.613-1.787 17.348 5.826 21.743 7.612 4.395 17.346 1.787 21.741-5.826zM194.402 179.17c11.499-19.918 4.675-45.388-15.243-56.888-19.917-11.5-45.386-4.676-56.885 15.243-11.499 19.919-4.675 45.389 15.242 56.889 19.918 11.5 45.386 4.675 56.886-15.244zm-22.281-12.864c4.395-7.613 1.787-17.347-5.825-21.743-7.613-4.395-17.347-1.787-21.742 5.826-4.395 7.613-1.787 17.348 5.826 21.743 7.612 4.395 17.346 1.787 21.741-5.826zM261.771 62.475c11.5-19.919 4.676-45.389-15.242-56.889-19.917-11.5-45.386-4.675-56.885 15.244-11.499 19.918-4.675 45.388 15.242 56.888 19.918 11.5 45.386 4.676 56.885-15.243zm-22.28-12.864c4.395-7.613 1.787-17.348-5.825-21.743-7.613-4.395-17.347-1.787-21.742 5.826-4.395 7.613-1.787 17.347 5.826 21.743 7.612 4.395 17.346 1.787 21.741-5.826z" fill="#4B5AE2"/></svg>